/vscmnt/brussel_pixiu_data/_data_brussel/112/vsc11236/PredSimResults/SUBJ11mtu3D/worker2.mot
version=1
nRows=7
nColumns=50
inDegrees=yes
endheader
                time	         pelvis_tilt	         pelvis_list	     pelvis_rotation	           pelvis_tx	           pelvis_ty	           pelvis_tz	       hip_flexion_r	     hip_adduction_r	      hip_rotation_r	        knee_angle_r	       ankle_angle_r	         mtp_angle_r	       hip_flexion_l	     hip_adduction_l	      hip_rotation_l	        knee_angle_l	       ankle_angle_l	         mtp_angle_l	    lumbar_extension	      lumbar_bending	     lumbar_rotation	 ercspn_r/activation	 intobl_r/activation	 extobl_r/activation	    abd_r/activation	    add_r/activation	hamstrings_r/activation	bifemsh_r/activation	glut_max_r/activation	iliopsoas_r/activation	rect_fem_r/activation	  vasti_r/activation	gastroc_r/activation	 soleus_r/activation	tib_ant_r/activation	 ercspn_l/activation	 intobl_l/activation	 extobl_l/activation	    abd_l/activation	    add_l/activation	hamstrings_l/activation	bifemsh_l/activation	glut_max_l/activation	iliopsoas_l/activation	rect_fem_l/activation	  vasti_l/activation	gastroc_l/activation	 soleus_l/activation	tib_ant_l/activation	
          1.35378508	         -3.06047511	         -1.12323327	          6.58582355	          1.48916359	          0.94114091	         -0.00967014	         30.55476491	         -2.08368288	         -5.53126837	         -8.50751552	          3.66715427	          0.26105846	        -14.34409044	         -2.98107517	         -1.77998940	        -11.42455810	         12.42822385	         28.58949235	        -13.86875892	         -0.88484326	         -2.72563281	          0.04233349	          0.21201134	          0.04290670	          0.01000048	          0.20548185	          0.05452547	          0.15018310	          0.08967973	          0.07790475	          0.02868593	          0.01000109	          0.01000761	          0.01000060	          0.43902456	          0.02276485	          0.01000281	          0.01000254	          0.03389839	          0.03934500	          0.02341827	          0.23783551	          0.01834513	          0.11615430	          0.01001202	          0.01000268	          0.15039905	          0.27321080	          0.01213270	
          1.36732293	         -3.14123738	         -1.13585104	          6.59886257	          1.50834310	          0.93889099	         -0.00842347	         30.32828754	         -1.93785990	         -5.57584302	         -9.89738615	          3.13628682	          0.21151768	        -14.98327168	         -3.18621207	         -2.17827594	        -12.19039030	         11.59788875	         30.44056002	        -13.38649568	         -0.46502661	         -3.09077673	          0.03454363	          0.17298237	          0.03500792	          0.06599103	          0.18666499	          0.06033352	          0.12253723	          0.11440061	          0.06356308	          0.02340568	          0.01000060	          0.01225778	          0.01225569	          0.49029194	          0.02848727	          0.01000084	          0.01000497	          0.02765799	          0.03210308	          0.01911467	          0.19405580	          0.01496853	          0.10431898	          0.01000492	          0.01000147	          0.12271187	          0.24983854	          0.01000036	
          1.38086078	         -3.20611991	         -1.14206812	          6.57803126	          1.52766748	          0.93710759	         -0.00709117	         30.07465857	         -1.81087225	         -5.63920385	        -11.26975411	          2.45188677	          0.19944447	        -15.41155639	         -3.39257167	         -2.59023967	        -13.34145861	         10.59559257	         32.36028380	        -12.89938086	         -0.04946794	         -3.44191305	          0.04423097	          0.14113770	          0.02856325	          0.11992936	          0.22651783	          0.04922898	          0.09998031	          0.13889835	          0.05186163	          0.01909754	          0.01001125	          0.01000238	          0.01000070	          0.54695628	          0.05948448	          0.01000082	          0.01000216	          0.02256639	          0.02619613	          0.01561738	          0.15833393	          0.01221392	          0.09900574	          0.01001166	          0.01000332	          0.10012153	          0.21693626	          0.01000041	
          1.39439863	         -3.25530450	         -1.13750728	          6.52369083	          1.54684188	          0.93600096	         -0.00567645	         29.92806182	         -1.70458245	         -5.74241300	        -12.82619401	          1.76938074	          0.15056808	        -15.52321842	         -3.59896724	         -3.00996446	        -15.02175042	          9.41065529	         34.30491678	        -12.44060877	          0.35608716	         -3.77454458	          0.04832135	          0.11515537	          0.02330501	          0.14704374	          0.27810275	          0.04733382	          0.08157607	          0.13550486	          0.04231434	          0.01558254	          0.05526028	          0.01000196	          0.01000089	          0.59434589	          0.08137396	          0.01000096	          0.01000166	          0.01841211	          0.08950273	          0.01370226	          0.12918870	          0.01000177	          0.09082352	          0.01000473	          0.01000130	          0.08168988	          0.17699986	          0.01000039	
          1.40793648	         -3.28937758	         -1.11738096	          6.43638885	          1.56577412	          0.93565664	         -0.00420134	         29.79581921	         -1.61065735	         -5.85264599	        -14.46359406	          1.38612894	          0.09917777	        -15.24364129	         -3.80423672	         -3.44536966	        -17.34474198	          8.05002802	         36.16084094	        -12.01567899	          0.74585991	         -4.08475352	          0.03942999	          0.09395621	          0.01901479	          0.17284421	          0.29669222	          0.05041988	          0.06656040	          0.13497190	          0.03452463	          0.01271476	          0.09669456	          0.01000342	          0.01000187	          0.59713934	          0.10225019	          0.01000112	          0.01000164	          0.01502261	          0.13684447	          0.01131504	          0.10541102	          0.01000081	          0.07411093	          0.01000259	          0.01000061	          0.06665137	          0.14441537	          0.01000033	
          1.42147433	         -3.31087577	         -1.07976807	          6.31539738	          1.58433985	          0.93615430	         -0.00269234	         29.57426858	         -1.51227672	         -5.91791741	        -15.99130121	          1.31754737	          0.05863178	        -14.51216562	         -4.01248896	         -3.90552870	        -20.37884291	          6.49615362	         37.75858082	        -11.63334371	          1.11840700	         -4.36797448	          0.03217234	          0.07665967	          0.01551440	          0.18477683	          0.30364685	          0.05376661	          0.05430970	          0.13471984	          0.02816896	          0.01037540	          0.13202605	          0.01000456	          0.01000239	          0.57252885	          0.11606091	          0.01000157	          0.01000221	          0.01225710	          0.17929317	          0.05121036	          0.08753453	          0.01000043	          0.06046977	          0.01000108	          0.01000024	          0.05438134	          0.11782945	          0.01000154	
          1.43501218	         -3.32197253	         -1.01857176	          6.15856478	          1.60243457	          0.93751950	         -0.00118705	         29.19133570	         -1.40385888	         -5.91226098	        -17.24774012	          1.44744218	          0.03350758	        -13.30428334	         -4.22668533	         -4.42113332	        -24.14112166	          4.84264486	         38.64401578	        -11.30141420	          1.47002369	         -4.61901589	          0.02625029	          0.06254732	          0.01265846	          0.18493485	          0.30527494	          0.05995927	          0.04431516	          0.12324423	          0.02298333	          0.01000287	          0.15585585	          0.01000816	          0.01000340	          0.53793285	          0.10603063	          0.01000177	          0.01000422	          0.01000076	          0.21613197	          0.06074084	          0.07217694	          0.01000035	          0.04933881	          0.01000084	          0.01000018	          0.04437015	          0.09613783	          0.01000354	
